<svg xmlns="http://www.w3.org/2000/svg" xmlns:xlink="http://www.w3.org/1999/xlink" viewBox="0 0 48 48" version="1.1">
<g id="surface1" stroke="none" fill="#000000" stroke-width="1px">
<path style="" d="M 24 39 L 19 33 L 19 27 L 29 27 L 29 33 Z " stroke="none" fill="#ff9800" stroke-width="1px"></path>
<path style="" d="M 35 21 C 35 22.105469 34.105469 23 33 23 C 31.894531 23 31 22.105469 31 21 C 31 19.894531 31.894531 19 33 19 C 34.105469 19 35 19.894531 35 21 M 17 21 C 17 19.894531 16.105469 19 15 19 C 13.894531 19 13 19.894531 13 21 C 13 22.105469 13.894531 23 15 23 C 16.105469 23 17 22.105469 17 21 " stroke="none" fill="#ffa726" stroke-width="1px"></path>
<path style="" d="M 33 15 C 33 7.363281 15 10.027344 15 15 L 15 22 C 15 26.972656 19.027344 31 24 31 C 28.972656 31 33 26.972656 33 22 Z " stroke="none" fill="#ffb74d" stroke-width="1px"></path>
<path style="" d="M 24 6 C 17.925781 6 14 10.925781 14 17 L 14 19.285156 L 16 21 L 16 16 L 28 12 L 32 16 L 32 21 L 34 19.257813 L 34 17 C 34 12.976563 32.960938 8.984375 28 8 L 27 6 Z " stroke="none" fill="#424242" stroke-width="1px"></path>
<path style="" d="M 27 21 C 27 20.449219 27.449219 20 28 20 C 28.550781 20 29 20.449219 29 21 C 29 21.550781 28.550781 22 28 22 C 27.449219 22 27 21.550781 27 21 M 19 21 C 19 21.550781 19.449219 22 20 22 C 20.550781 22 21 21.550781 21 21 C 21 20.449219 20.550781 20 20 20 C 19.449219 20 19 20.449219 19 21 " stroke="none" fill="#784719" stroke-width="1px"></path>
<path style="" d="M 24 45 L 19 33 L 24 34 L 29 33 Z " stroke="none" fill="#ffffff" stroke-width="1px"></path>
<path style="" d="M 23 37 L 22.332031 41.464844 L 24 45.464844 L 25.667969 41.464844 L 25 37 L 26 36 L 24 34 L 22 36 Z " stroke="none" fill="#d32f2f" stroke-width="1px"></path>
<path style="" d="M 29 33 L 24 45 L 19 33 C 19 33 8 34.984375 8 46 L 40 46 C 40 35.023438 29 33 29 33 " stroke="none" fill="#3f51b5" stroke-width="1px"></path>
</g>
</svg>