<svg xmlns="http://www.w3.org/2000/svg" xmlns:xlink="http://www.w3.org/1999/xlink" version="1.1" id="Слой_1" x="0px" y="0px" viewBox="0 0 64 64" style="enable-background:new 0 0 64 64;" xml:space="preserve">
<linearGradient id="SVGID_1__44815" gradientUnits="userSpaceOnUse" x1="20" y1="29.9167" x2="20" y2="46.2978" spreadMethod="reflect" stroke="none" fill="#000000" stroke-width="1px">
	<stop offset="0" style="stop-color:#6DC7FF" stroke="none" fill="#000000" stroke-width="1px"></stop>
	<stop offset="1" style="stop-color:#E6ABFF" stroke="none" fill="#000000" stroke-width="1px"></stop>
</linearGradient>
<path style="" d="M24.002,40h-8.004C15.447,40,15,39.553,15,39.002v-2.004C15,36.447,15.447,36,15.998,36h8.004  C24.553,36,25,36.447,25,36.998v2.004C25,39.553,24.553,40,24.002,40z" stroke="none" fill="url(&quot;#SVGID_1__44815&quot;)" stroke-width="1px"></path>
<linearGradient id="SVGID_2__44815" gradientUnits="userSpaceOnUse" x1="17" y1="29.9167" x2="17" y2="46.2978" spreadMethod="reflect" stroke="none" fill="#000000" stroke-width="1px">
	<stop offset="0" style="stop-color:#6DC7FF" stroke="none" fill="#000000" stroke-width="1px"></stop>
	<stop offset="1" style="stop-color:#E6ABFF" stroke="none" fill="#000000" stroke-width="1px"></stop>
</linearGradient>
<path style="" d="M18.002,46h-2.004C15.447,46,15,45.553,15,45.002v-2.004C15,42.447,15.447,42,15.998,42h2.004  C18.553,42,19,42.447,19,42.998v2.004C19,45.553,18.553,46,18.002,46z" stroke="none" fill="url(&quot;#SVGID_2__44815&quot;)" stroke-width="1px"></path>
<linearGradient id="SVGID_3__44815" gradientUnits="userSpaceOnUse" x1="32" y1="29.9167" x2="32" y2="46.2978" spreadMethod="reflect" stroke="none" fill="#000000" stroke-width="1px">
	<stop offset="0" style="stop-color:#6DC7FF" stroke="none" fill="#000000" stroke-width="1px"></stop>
	<stop offset="1" style="stop-color:#E6ABFF" stroke="none" fill="#000000" stroke-width="1px"></stop>
</linearGradient>
<path style="" d="M42.002,46H21.998C21.447,46,21,45.553,21,45.002v-2.004C21,42.447,21.447,42,21.998,42  h20.004C42.553,42,43,42.447,43,42.998v2.004C43,45.553,42.553,46,42.002,46z" stroke="none" fill="url(&quot;#SVGID_3__44815&quot;)" stroke-width="1px"></path>
<linearGradient id="SVGID_4__44815" gradientUnits="userSpaceOnUse" x1="17" y1="29.9167" x2="17" y2="46.2978" spreadMethod="reflect" stroke="none" fill="#000000" stroke-width="1px">
	<stop offset="0" style="stop-color:#6DC7FF" stroke="none" fill="#000000" stroke-width="1px"></stop>
	<stop offset="1" style="stop-color:#E6ABFF" stroke="none" fill="#000000" stroke-width="1px"></stop>
</linearGradient>
<path style="" d="M18.002,34h-2.004C15.447,34,15,33.553,15,33.002v-2.004C15,30.447,15.447,30,15.998,30h2.004  C18.553,30,19,30.447,19,30.998v2.004C19,33.553,18.553,34,18.002,34z" stroke="none" fill="url(&quot;#SVGID_4__44815&quot;)" stroke-width="1px"></path>
<linearGradient id="SVGID_5__44815" gradientUnits="userSpaceOnUse" x1="23" y1="29.9167" x2="23" y2="46.2978" spreadMethod="reflect" stroke="none" fill="#000000" stroke-width="1px">
	<stop offset="0" style="stop-color:#6DC7FF" stroke="none" fill="#000000" stroke-width="1px"></stop>
	<stop offset="1" style="stop-color:#E6ABFF" stroke="none" fill="#000000" stroke-width="1px"></stop>
</linearGradient>
<path style="" d="M24.002,34h-2.004C21.447,34,21,33.553,21,33.002v-2.004C21,30.447,21.447,30,21.998,30h2.004  C24.553,30,25,30.447,25,30.998v2.004C25,33.553,24.553,34,24.002,34z" stroke="none" fill="url(&quot;#SVGID_5__44815&quot;)" stroke-width="1px"></path>
<linearGradient id="SVGID_6__44815" gradientUnits="userSpaceOnUse" x1="29" y1="29.9167" x2="29" y2="46.2978" spreadMethod="reflect" stroke="none" fill="#000000" stroke-width="1px">
	<stop offset="0" style="stop-color:#6DC7FF" stroke="none" fill="#000000" stroke-width="1px"></stop>
	<stop offset="1" style="stop-color:#E6ABFF" stroke="none" fill="#000000" stroke-width="1px"></stop>
</linearGradient>
<path style="" d="M30.002,40h-2.004C27.447,40,27,39.553,27,39.002v-2.004C27,36.447,27.447,36,27.998,36h2.004  C30.553,36,31,36.447,31,36.998v2.004C31,39.553,30.553,40,30.002,40z" stroke="none" fill="url(&quot;#SVGID_6__44815&quot;)" stroke-width="1px"></path>
<linearGradient id="SVGID_7__44815" gradientUnits="userSpaceOnUse" x1="35" y1="29.9167" x2="35" y2="46.2978" spreadMethod="reflect" stroke="none" fill="#000000" stroke-width="1px">
	<stop offset="0" style="stop-color:#6DC7FF" stroke="none" fill="#000000" stroke-width="1px"></stop>
	<stop offset="1" style="stop-color:#E6ABFF" stroke="none" fill="#000000" stroke-width="1px"></stop>
</linearGradient>
<path style="" d="M36.002,40h-2.004C33.447,40,33,39.553,33,39.002v-2.004C33,36.447,33.447,36,33.998,36h2.004  C36.553,36,37,36.447,37,36.998v2.004C37,39.553,36.553,40,36.002,40z" stroke="none" fill="url(&quot;#SVGID_7__44815&quot;)" stroke-width="1px"></path>
<linearGradient id="SVGID_8__44815" gradientUnits="userSpaceOnUse" x1="47" y1="29.9167" x2="47" y2="46.2978" spreadMethod="reflect" stroke="none" fill="#000000" stroke-width="1px">
	<stop offset="0" style="stop-color:#6DC7FF" stroke="none" fill="#000000" stroke-width="1px"></stop>
	<stop offset="1" style="stop-color:#E6ABFF" stroke="none" fill="#000000" stroke-width="1px"></stop>
</linearGradient>
<path style="" d="M48.002,40h-2.004C45.447,40,45,39.553,45,39.002v-2.004C45,36.447,45.447,36,45.998,36h2.004  C48.553,36,49,36.447,49,36.998v2.004C49,39.553,48.553,40,48.002,40z" stroke="none" fill="url(&quot;#SVGID_8__44815&quot;)" stroke-width="1px"></path>
<linearGradient id="SVGID_9__44815" gradientUnits="userSpaceOnUse" x1="41" y1="29.9167" x2="41" y2="46.2978" spreadMethod="reflect" stroke="none" fill="#000000" stroke-width="1px">
	<stop offset="0" style="stop-color:#6DC7FF" stroke="none" fill="#000000" stroke-width="1px"></stop>
	<stop offset="1" style="stop-color:#E6ABFF" stroke="none" fill="#000000" stroke-width="1px"></stop>
</linearGradient>
<path style="" d="M42.002,40h-2.004C39.447,40,39,39.553,39,39.002v-2.004C39,36.447,39.447,36,39.998,36h2.004  C42.553,36,43,36.447,43,36.998v2.004C43,39.553,42.553,40,42.002,40z" stroke="none" fill="url(&quot;#SVGID_9__44815&quot;)" stroke-width="1px"></path>
<linearGradient id="SVGID_10__44815" gradientUnits="userSpaceOnUse" x1="47" y1="29.9167" x2="47" y2="46.2978" spreadMethod="reflect" stroke="none" fill="#000000" stroke-width="1px">
	<stop offset="0" style="stop-color:#6DC7FF" stroke="none" fill="#000000" stroke-width="1px"></stop>
	<stop offset="1" style="stop-color:#E6ABFF" stroke="none" fill="#000000" stroke-width="1px"></stop>
</linearGradient>
<path style="" d="M48.002,46h-2.004C45.447,46,45,45.553,45,45.002v-2.004C45,42.447,45.447,42,45.998,42  h2.004C48.553,42,49,42.447,49,42.998v2.004C49,45.553,48.553,46,48.002,46z" stroke="none" fill="url(&quot;#SVGID_10__44815&quot;)" stroke-width="1px"></path>
<linearGradient id="SVGID_11__44815" gradientUnits="userSpaceOnUse" x1="47" y1="29.9167" x2="47" y2="46.2978" spreadMethod="reflect" stroke="none" fill="#000000" stroke-width="1px">
	<stop offset="0" style="stop-color:#6DC7FF" stroke="none" fill="#000000" stroke-width="1px"></stop>
	<stop offset="1" style="stop-color:#E6ABFF" stroke="none" fill="#000000" stroke-width="1px"></stop>
</linearGradient>
<path style="" d="M48.002,34h-2.004C45.447,34,45,33.553,45,33.002v-2.004C45,30.447,45.447,30,45.998,30  h2.004C48.553,30,49,30.447,49,30.998v2.004C49,33.553,48.553,34,48.002,34z" stroke="none" fill="url(&quot;#SVGID_11__44815&quot;)" stroke-width="1px"></path>
<linearGradient id="SVGID_12__44815" gradientUnits="userSpaceOnUse" x1="41" y1="29.9167" x2="41" y2="46.2978" spreadMethod="reflect" stroke="none" fill="#000000" stroke-width="1px">
	<stop offset="0" style="stop-color:#6DC7FF" stroke="none" fill="#000000" stroke-width="1px"></stop>
	<stop offset="1" style="stop-color:#E6ABFF" stroke="none" fill="#000000" stroke-width="1px"></stop>
</linearGradient>
<path style="" d="M42.002,34h-2.004C39.447,34,39,33.553,39,33.002v-2.004C39,30.447,39.447,30,39.998,30  h2.004C42.553,30,43,30.447,43,30.998v2.004C43,33.553,42.553,34,42.002,34z" stroke="none" fill="url(&quot;#SVGID_12__44815&quot;)" stroke-width="1px"></path>
<linearGradient id="SVGID_13__44815" gradientUnits="userSpaceOnUse" x1="32" y1="9.6667" x2="32" y2="55.0885" spreadMethod="reflect" stroke="none" fill="#000000" stroke-width="1px">
	<stop offset="0" style="stop-color:#1A6DFF" stroke="none" fill="#000000" stroke-width="1px"></stop>
	<stop offset="1" style="stop-color:#C822FF" stroke="none" fill="#000000" stroke-width="1px"></stop>
</linearGradient>
<path style="" d="M55,22h-2h-1v-1c0-1.654-1.346-3-3-3h-6v-5.146C43,11.228,41.71,10,40,10H24  c-1.71,0-3,1.228-3,2.854V18h-6c-1.654,0-3,1.346-3,3v1h-1H9c-1.654,0-3,1.346-3,3v2c0,1.302,0.839,2.402,2,2.816V49  c0,2.757,2.243,5,5,5h38c2.757,0,5-2.243,5-5V29.816c1.161-0.414,2-1.514,2-2.816v-2C58,23.346,56.654,22,55,22z M49,20  c0.552,0,1,0.448,1,1v1h-7v-2H49z M23,12.854C23,12.265,23.502,12,24,12h16c0.498,0,1,0.265,1,0.854v12.168  c0,0.265-0.107,0.523-0.295,0.711l-7.996,7.974c-0.391,0.391-1.027,0.391-1.418,0l-7.996-7.974C23.107,25.546,23,25.287,23,25.022  V12.854z M14,21c0-0.552,0.448-1,1-1h6v2h-7V21z M54,49c0,1.654-1.346,3-3,3h-7.382l-0.171-0.342C42.936,50.636,41.907,50,40.764,50  H23.236c-1.144,0-2.172,0.636-2.684,1.658L20.382,52H13c-1.654,0-3-1.346-3-3V25c0-0.552,0.448-1,1-1h1h9v1.022  c0,0.792,0.321,1.567,0.883,2.127l7.996,7.974c0.585,0.583,1.353,0.875,2.121,0.875s1.536-0.292,2.121-0.875l7.996-7.974  C42.679,26.59,43,25.814,43,25.022V24h8h2c0.552,0,1,0.448,1,1V49z" stroke="none" fill="url(&quot;#SVGID_13__44815&quot;)" stroke-width="1px"></path>
<linearGradient id="SVGID_14__44815" gradientUnits="userSpaceOnUse" x1="32" y1="9.6667" x2="32" y2="55.0885" spreadMethod="reflect" stroke="none" fill="#000000" stroke-width="1px">
	<stop offset="0" style="stop-color:#1A6DFF" stroke="none" fill="#000000" stroke-width="1px"></stop>
	<stop offset="1" style="stop-color:#C822FF" stroke="none" fill="#000000" stroke-width="1px"></stop>
</linearGradient>
<path style="" d="M29,23h6v3h2v-9c0-1.654-1.346-3-3-3h-4c-1.654,0-3,1.346-3,3v9h2V23z M30,16h4  c0.552,0,1,0.448,1,1v4h-6v-4C29,16.448,29.448,16,30,16z" stroke="none" fill="url(&quot;#SVGID_14__44815&quot;)" stroke-width="1px"></path>
</svg>