<svg xmlns="http://www.w3.org/2000/svg" xmlns:xlink="http://www.w3.org/1999/xlink" version="1.1" id="Слой_1" x="0px" y="0px" viewBox="0 0 64 64" style="enable-background:new 0 0 64 64;" xml:space="preserve">
<linearGradient id="SVGID_1__44766" gradientUnits="userSpaceOnUse" x1="21.8786" y1="33.7221" x2="22.1286" y2="40.4721" spreadMethod="reflect" stroke="none" fill="#000000" stroke-width="1px">
	<stop offset="0" style="stop-color:#6DC7FF" stroke="none" fill="#000000" stroke-width="1px"></stop>
	<stop offset="1" style="stop-color:#E6ABFF" stroke="none" fill="#000000" stroke-width="1px"></stop>
</linearGradient>
<path style="" d="M27,39c0,0.552-0.448,1-1,1h-8c-0.552,0-1-0.448-1-1v-4c0-0.552,0.448-1,1-1h8  c0.552,0,1,0.448,1,1V39z" stroke="none" fill="url(&quot;#SVGID_1__44766&quot;)" stroke-width="1px"></path>
<linearGradient id="SVGID_2__44766" gradientUnits="userSpaceOnUse" x1="46.5" y1="31.875" x2="46.5" y2="37.3807" spreadMethod="reflect" stroke="none" fill="#000000" stroke-width="1px">
	<stop offset="0" style="stop-color:#6DC7FF" stroke="none" fill="#000000" stroke-width="1px"></stop>
	<stop offset="1" style="stop-color:#E6ABFF" stroke="none" fill="#000000" stroke-width="1px"></stop>
</linearGradient>
<path style="" d="M49,37c0-2.761-2.239-5-5-5v5H49z" stroke="none" fill="url(&quot;#SVGID_2__44766&quot;)" stroke-width="1px"></path>
<linearGradient id="SVGID_3__44766" gradientUnits="userSpaceOnUse" x1="34" y1="5.6667" x2="34" y2="57.1677" spreadMethod="reflect" stroke="none" fill="#000000" stroke-width="1px">
	<stop offset="0" style="stop-color:#1A6DFF" stroke="none" fill="#000000" stroke-width="1px"></stop>
	<stop offset="1" style="stop-color:#C822FF" stroke="none" fill="#000000" stroke-width="1px"></stop>
</linearGradient>
<rect x="29" y="18" style="" width="10" height="2" stroke="none" fill="url(&quot;#SVGID_3__44766&quot;)" stroke-width="1px"></rect>
<linearGradient id="SVGID_4__44766" gradientUnits="userSpaceOnUse" x1="22" y1="5.6667" x2="22" y2="57.1677" spreadMethod="reflect" stroke="none" fill="#000000" stroke-width="1px">
	<stop offset="0" style="stop-color:#1A6DFF" stroke="none" fill="#000000" stroke-width="1px"></stop>
	<stop offset="1" style="stop-color:#C822FF" stroke="none" fill="#000000" stroke-width="1px"></stop>
</linearGradient>
<rect x="17" y="18" style="" width="10" height="2" stroke="none" fill="url(&quot;#SVGID_4__44766&quot;)" stroke-width="1px"></rect>
<linearGradient id="SVGID_5__44766" gradientUnits="userSpaceOnUse" x1="22" y1="5.6667" x2="22" y2="57.1677" spreadMethod="reflect" stroke="none" fill="#000000" stroke-width="1px">
	<stop offset="0" style="stop-color:#1A6DFF" stroke="none" fill="#000000" stroke-width="1px"></stop>
	<stop offset="1" style="stop-color:#C822FF" stroke="none" fill="#000000" stroke-width="1px"></stop>
</linearGradient>
<rect x="17" y="22" style="" width="10" height="2" stroke="none" fill="url(&quot;#SVGID_5__44766&quot;)" stroke-width="1px"></rect>
<linearGradient id="SVGID_6__44766" gradientUnits="userSpaceOnUse" x1="22" y1="5.6667" x2="22" y2="57.1677" spreadMethod="reflect" stroke="none" fill="#000000" stroke-width="1px">
	<stop offset="0" style="stop-color:#1A6DFF" stroke="none" fill="#000000" stroke-width="1px"></stop>
	<stop offset="1" style="stop-color:#C822FF" stroke="none" fill="#000000" stroke-width="1px"></stop>
</linearGradient>
<rect x="17" y="26" style="" width="10" height="2" stroke="none" fill="url(&quot;#SVGID_6__44766&quot;)" stroke-width="1px"></rect>
<linearGradient id="SVGID_7__44766" gradientUnits="userSpaceOnUse" x1="22" y1="5.6667" x2="22" y2="57.1677" spreadMethod="reflect" stroke="none" fill="#000000" stroke-width="1px">
	<stop offset="0" style="stop-color:#1A6DFF" stroke="none" fill="#000000" stroke-width="1px"></stop>
	<stop offset="1" style="stop-color:#C822FF" stroke="none" fill="#000000" stroke-width="1px"></stop>
</linearGradient>
<rect x="17" y="30" style="" width="10" height="2" stroke="none" fill="url(&quot;#SVGID_7__44766&quot;)" stroke-width="1px"></rect>
<linearGradient id="SVGID_8__44766" gradientUnits="userSpaceOnUse" x1="34" y1="5.6667" x2="34" y2="57.1677" spreadMethod="reflect" stroke="none" fill="#000000" stroke-width="1px">
	<stop offset="0" style="stop-color:#1A6DFF" stroke="none" fill="#000000" stroke-width="1px"></stop>
	<stop offset="1" style="stop-color:#C822FF" stroke="none" fill="#000000" stroke-width="1px"></stop>
</linearGradient>
<rect x="29" y="22" style="" width="10" height="2" stroke="none" fill="url(&quot;#SVGID_8__44766&quot;)" stroke-width="1px"></rect>
<linearGradient id="SVGID_9__44766" gradientUnits="userSpaceOnUse" x1="34" y1="5.6667" x2="34" y2="57.1677" spreadMethod="reflect" stroke="none" fill="#000000" stroke-width="1px">
	<stop offset="0" style="stop-color:#1A6DFF" stroke="none" fill="#000000" stroke-width="1px"></stop>
	<stop offset="1" style="stop-color:#C822FF" stroke="none" fill="#000000" stroke-width="1px"></stop>
</linearGradient>
<rect x="29" y="26" style="" width="10" height="2" stroke="none" fill="url(&quot;#SVGID_9__44766&quot;)" stroke-width="1px"></rect>
<linearGradient id="SVGID_10__44766" gradientUnits="userSpaceOnUse" x1="32" y1="5.6667" x2="32" y2="57.1677" spreadMethod="reflect" stroke="none" fill="#000000" stroke-width="1px">
	<stop offset="0" style="stop-color:#1A6DFF" stroke="none" fill="#000000" stroke-width="1px"></stop>
	<stop offset="1" style="stop-color:#C822FF" stroke="none" fill="#000000" stroke-width="1px"></stop>
</linearGradient>
<path style="" d="M53,37c0-4.625-3.507-8.441-8-8.941V15.828c0-0.801-0.313-1.555-0.879-2.121l-6.828-6.828  C36.727,6.313,35.973,6,35.172,6H14c-1.654,0-3,1.346-3,3v38c0,1.654,1.346,3,3,3h24v-2H14c-0.552,0-1-0.448-1-1V9  c0-0.552,0.448-1,1-1h21v5c0,1.654,1.346,3,3,3h5v12.059c-4.493,0.5-8,4.316-8,8.941s3.507,8.441,8,8.941V48h-3v7  c0,1.654,1.346,3,3,3h2c1.654,0,3-1.346,3-3v-7h-3v-2.059C49.493,45.441,53,41.625,53,37z M45,56h-2c-0.552,0-1-0.448-1-1v-1h4v1  C46,55.552,45.552,56,45,56z M46,52h-4v-2h4V52z M37,13V9.414L41.586,14H38C37.448,14,37,13.552,37,13z M37,37c0-3.859,3.141-7,7-7  s7,3.141,7,7s-3.141,7-7,7S37,40.859,37,37z" stroke="none" fill="url(&quot;#SVGID_10__44766&quot;)" stroke-width="1px"></path>
</svg>