<svg xmlns="http://www.w3.org/2000/svg" xmlns:xlink="http://www.w3.org/1999/xlink" version="1.1" id="Слой_1" x="0px" y="0px" viewBox="0 0 64 64" style="enable-background:new 0 0 64 64;" xml:space="preserve">
<linearGradient id="SVGID_1__44822" gradientUnits="userSpaceOnUse" x1="51.5" y1="27.5833" x2="51.5" y2="36.5972" spreadMethod="reflect" stroke="none" fill="#000000" stroke-width="1px">
	<stop offset="0" style="stop-color:#6DC7FF" stroke="none" fill="#000000" stroke-width="1px"></stop>
	<stop offset="1" style="stop-color:#E6ABFF" stroke="none" fill="#000000" stroke-width="1px"></stop>
</linearGradient>
<path style="" d="M50,36c2.209,0,4-1.791,4-4s-1.791-4-4-4h-1v8H50z" stroke="none" fill="url(&quot;#SVGID_1__44822&quot;)" stroke-width="1px"></path>
<linearGradient id="SVGID_2__44822" gradientUnits="userSpaceOnUse" x1="32" y1="5.8333" x2="32" y2="59.3427" spreadMethod="reflect" stroke="none" fill="#000000" stroke-width="1px">
	<stop offset="0" style="stop-color:#1A6DFF" stroke="none" fill="#000000" stroke-width="1px"></stop>
	<stop offset="1" style="stop-color:#C822FF" stroke="none" fill="#000000" stroke-width="1px"></stop>
</linearGradient>
<path style="" d="M55,52c0,1.654-1.346,3-3,3s-3-1.346-3-3V40h1c4.411,0,8-3.589,8-8s-3.589-8-8-8h-1V12  c0-1.654,1.346-3,3-3s3,1.346,3,3v11h2V12c0-2.757-2.243-5-5-5c-2.847,0-5.522,1.108-7.535,3.121l-9.002,9.002  C34.905,19.681,34.134,20,33.345,20H16.816c-0.414-1.162-1.514-2-2.816-2c-1.654,0-3,1.346-3,3v6H9c-1.654,0-3,1.346-3,3v4  c0,1.654,1.346,3,3,3h2v6c0,1.654,1.346,3,3,3c1.302,0,2.402-0.838,2.816-2H18c0.552,0,1,0.448,1,1v9c0,1.654,1.346,3,3,3h3  c1.654,0,3-1.346,3-3v-9c0-0.552,0.448-1,1-1h2h2.345c0.789,0,1.561,0.319,2.118,0.877l9.002,9.001C46.477,55.892,49.153,57,52,57  c2.757,0,5-2.243,5-5V41h-2V52z M50,26c3.309,0,6,2.691,6,6s-2.691,6-6,6h-1V26H50z M9,35c-0.552,0-1-0.448-1-1v-4  c0-0.552,0.448-1,1-1h2v6H9z M15,43c0,0.552-0.448,1-1,1s-1-0.448-1-1V21c0-0.552,0.448-1,1-1s1,0.448,1,1V43z M25,55h-3  c-0.552,0-1-0.448-1-1v-6h5v6C26,54.552,25.552,55,25,55z M26,45v1h-5v-1c0-0.353-0.072-0.686-0.184-1h5.369  C26.072,44.314,26,44.647,26,45z M36.877,43.463C35.934,42.52,34.68,42,33.345,42H31h-2H18h-1V22h16.345  c1.335,0,2.589-0.52,3.532-1.463l9.002-9.002c0.433-0.434,0.907-0.812,1.409-1.138C47.115,10.903,47,11.436,47,12v40  c0,0.563,0.115,1.097,0.287,1.603c-0.502-0.327-0.975-0.705-1.408-1.139L36.877,43.463z" stroke="none" fill="url(&quot;#SVGID_2__44822&quot;)" stroke-width="1px"></path>
<linearGradient id="SVGID_3__44822" gradientUnits="userSpaceOnUse" x1="26" y1="5.8333" x2="26" y2="59.3427" spreadMethod="reflect" stroke="none" fill="#000000" stroke-width="1px">
	<stop offset="0" style="stop-color:#1A6DFF" stroke="none" fill="#000000" stroke-width="1px"></stop>
	<stop offset="1" style="stop-color:#C822FF" stroke="none" fill="#000000" stroke-width="1px"></stop>
</linearGradient>
<path style="" d="M28.984,29h-5.969C21.904,29,21,29.904,21,31.016v1.969C21,34.096,21.904,35,23.016,35h5.969  C30.096,35,31,34.096,31,32.984v-1.969C31,29.904,30.096,29,28.984,29z M23,32.984L23.016,31L25,31.005v1.984L23,32.984z M29,32.984  L28.984,33L27,32.995V31.01l2,0.005V32.984z" stroke="none" fill="url(&quot;#SVGID_3__44822&quot;)" stroke-width="1px"></path>
</svg>