<svg xmlns="http://www.w3.org/2000/svg" viewBox="0 0 16 16">
    <path style="line-height:normal;text-indent:0;text-align:start;text-decoration-line:none;text-decoration-style:solid;text-decoration-color:#000;text-transform:none;block-progression:tb;isolation:auto;mix-blend-mode:normal" d="M 8 1 C 5.796781 1 4 2.796781 4 5 L 4 6 L 3.5 6 C 2.6774686 6 2 6.6774686 2 7.5 L 2 12.5 C 2 13.322531 2.6774686 14 3.5 14 L 5 14 L 5 13 L 3.5 13 C 3.2185314 13 3 12.781469 3 12.5 L 3 7.5 C 3 7.2185314 3.2185314 7 3.5 7 L 12.5 7 C 12.781469 7 13 7.2185314 13 7.5 L 13 12.5 C 13 12.781469 12.781469 13 12.5 13 L 11 13 L 11 14 L 12.5 14 C 13.322531 14 14 13.322531 14 12.5 L 14 7.5 C 14 6.6774686 13.322531 6 12.5 6 L 12 6 L 12 5 C 12 2.796781 10.203219 1 8 1 z M 8 2 C 9.662781 2 11 3.337219 11 5 L 11 6 L 5 6 L 5 5 C 5 3.337219 6.337219 2 8 2 z M 8 8 C 6.9014686 8 6 8.9014686 6 10 L 7 10 C 7 9.4425314 7.4425314 9 8 9 C 8.5574686 9 9 9.4425314 9 10 C 9 10.527778 8.6758074 10.806741 8.1855469 11.205078 C 7.9404166 11.404246 7.6654426 11.612619 7.4296875 11.892578 C 7.1939324 12.172537 7 12.554167 7 13 L 8 13 C 8 12.820833 8.0560676 12.702463 8.1953125 12.537109 C 8.3345574 12.371756 8.5595834 12.189504 8.8144531 11.982422 C 9.3241926 11.568259 10 10.972222 10 10 C 10 8.9014686 9.0985314 8 8 8 z M 7 14 L 7 15 L 8 15 L 8 14 L 7 14 z" font-weight="400" font-family="sans-serif" white-space="normal" overflow="visible" stroke="none" fill="#000001" stroke-width="1px"></path>
</svg>