<svg xmlns="http://www.w3.org/2000/svg" xmlns:xlink="http://www.w3.org/1999/xlink" version="1.1" id="Слой_1" x="0px" y="0px" viewBox="0 0 64 64" style="enable-background:new 0 0 64 64;" xml:space="preserve">
<linearGradient id="SVGID_1__48290" gradientUnits="userSpaceOnUse" x1="49" y1="17.875" x2="49" y2="25.746" spreadMethod="reflect" stroke="none" fill="#ffffff" stroke-width="1px">
	<stop offset="0" style="stop-color:#6DC7FF" stroke="none" fill="#ffffff" stroke-width="1px"></stop>
	<stop offset="1" style="stop-color:#E6ABFF" stroke="none" fill="#ffffff" stroke-width="1px"></stop>
</linearGradient>
<path style="" d="M53,26v-7c0-0.552-0.448-1-1-1h-7L53,26z" stroke="none" fill="url(&quot;#SVGID_1__48290&quot;)" stroke-width="1px"></path>
<linearGradient id="SVGID_2__48290" gradientUnits="userSpaceOnUse" x1="32" y1="8.5" x2="32" y2="57.0058" spreadMethod="reflect" stroke="none" fill="#ffffff" stroke-width="1px">
	<stop offset="0" style="stop-color:#1A6DFF" stroke="none" fill="#ffffff" stroke-width="1px"></stop>
	<stop offset="1" style="stop-color:#C822FF" stroke="none" fill="#ffffff" stroke-width="1px"></stop>
</linearGradient>
<path style="" d="M56,10H8c-2.757,0-5,2.243-5,5v32c0,2.757,2.243,5,5,5h10h3.184c0.414,1.162,1.514,2,2.816,2  h16c1.302,0,2.402-0.838,2.816-2H46h10c2.757,0,5-2.243,5-5V15C61,12.243,58.757,10,56,10z M17,49c0-0.552,0.448-1,1-1h3v2h-3  C17.448,50,17,49.552,17,49z M46,46h-3H33v-0.998c0-2.727,1.206-5.231,3.303-6.95C37.573,39.833,39.651,41,42,41  c2.349,0,4.426-1.167,5.697-2.948C49.795,39.77,51,42.274,51,45.002V46H46z M37,34v-3c0-2.757,2.243-5,5-5s5,2.243,5,5v3  c0,2.757-2.243,5-5,5S37,36.757,37,34z M48.63,36.227C48.867,35.526,49,34.779,49,34v-3c0-3.859-3.141-7-7-7s-7,3.141-7,7v3  c0,0.779,0.133,1.526,0.369,2.227c-1.489,1.127-2.625,2.574-3.369,4.206c-0.745-1.632-1.88-3.079-3.37-4.205  C28.867,35.526,29,34.779,29,34v-3c0-3.859-3.141-7-7-7s-7,3.141-7,7v3c0,0.779,0.133,1.526,0.369,2.227  C12.593,38.329,11,41.523,11,45.002V46H9V16l46-0.002V46h-2v-0.998C53,41.522,51.406,38.327,48.63,36.227z M27,31v3  c0,2.757-2.243,5-5,5s-5-2.243-5-5v-3c0-2.757,2.243-5,5-5S27,28.243,27,31z M13,45.002c0-2.727,1.206-5.231,3.303-6.95  C17.573,39.833,19.651,41,22,41c2.349,0,4.426-1.167,5.697-2.948C29.795,39.77,31,42.274,31,45.002V46H21h-3h-5V45.002z M41,51  c0,0.552-0.448,1-1,1H24c-0.552,0-1-0.448-1-1v-3h18V51z M43,50v-2h3c0.552,0,1,0.448,1,1s-0.448,1-1,1H43z M59,47  c0,1.654-1.346,3-3,3h-7.184C48.928,49.686,49,49.353,49,49s-0.072-0.686-0.184-1H55c1.103,0,2-0.897,2-2V16c0-1.103-0.897-2-2-2H9  c-1.103,0-2,0.897-2,2v30c0,1.103,0.897,2,2,2h6.184C15.072,48.314,15,48.647,15,49s0.072,0.686,0.184,1H8c-1.654,0-3-1.346-3-3V15  c0-1.654,1.346-3,3-3h48c1.654,0,3,1.346,3,3V47z" stroke="none" fill="url(&quot;#SVGID_2__48290&quot;)" stroke-width="1px"></path>
</svg>