<svg xmlns="http://www.w3.org/2000/svg" xmlns:xlink="http://www.w3.org/1999/xlink" viewBox="0 0 50 50" version="1.1">
<g id="surface1" stroke="none" fill="#ffffff" stroke-width="1px">
<path style=" " d="M 5 2 C 3.347656 2 2 3.347656 2 5 L 2 45 C 2 46.652344 3.347656 48 5 48 L 45 48 C 46.652344 48 48 46.652344 48 45 L 48 28.59375 L 39.96875 36.625 L 39.96875 46 L 10.03125 46 L 10.03125 28.8125 C 10.03125 27.28125 11.28125 26.03125 12.8125 26.03125 L 33.375 26.03125 L 41.625 17.78125 C 43.34375 16.0625 45.847656 15.597656 48 16.375 L 48 12 C 48 11.734375 47.90625 11.46875 47.71875 11.28125 L 38.71875 2.28125 C 38.53125 2.09375 38.265625 2 38 2 Z M 12 4 L 35 4 C 36.101563 4 37 4.898438 37 6 L 37 17 C 37 18.101563 36.101563 19 35 19 L 12 19 C 10.898438 19 10 18.101563 10 17 L 10 6 C 10 4.898438 10.898438 4 12 4 Z M 30 6 C 29.445313 6 29 6.445313 29 7 L 29 16 C 29 16.554688 29.445313 17 30 17 L 33 17 C 33.554688 17 34 16.554688 34 16 L 34 7 C 34 6.445313 33.554688 6 33 6 Z M 45.9375 18 C 44.894531 18 43.828125 18.390625 43.03125 19.1875 L 42.8125 19.4375 C 42.730469 19.488281 42.65625 19.550781 42.59375 19.625 L 26.90625 35.3125 C 26.777344 35.429688 26.679688 35.582031 26.625 35.75 L 25.03125 41.75 C 24.941406 42.09375 25.042969 42.457031 25.292969 42.707031 C 25.542969 42.957031 25.90625 43.058594 26.25 42.96875 L 32.25 41.375 C 32.417969 41.320313 32.570313 41.222656 32.6875 41.09375 L 48.125 25.65625 C 48.125 25.65625 48.257813 25.523438 48.375 25.40625 C 48.449219 25.34375 48.511719 25.269531 48.5625 25.1875 C 48.667969 25.082031 48.8125 24.96875 48.8125 24.96875 C 50.40625 23.375 50.402344 20.777344 48.8125 19.1875 C 48.015625 18.390625 46.980469 18 45.9375 18 Z M 43.75 21.28125 L 46.71875 24.25 L 31.46875 39.5 L 31.40625 39.53125 L 28.46875 36.59375 L 28.5 36.53125 Z M 6 41 L 8 41 L 8 43 L 6 43 Z M 42 41 L 44 41 L 44 43 L 42 43 Z " stroke="none" fill="#ffffff" stroke-width="1px"></path>
</g>
</svg>