<svg xmlns="http://www.w3.org/2000/svg" xmlns:xlink="http://www.w3.org/1999/xlink" viewBox="0 0 26 26" version="1.1">
<g id="surface1" stroke="none" fill="#ffffff" stroke-width="1px">
<path style=" " d="M 7 0 C 4.796875 0 3 1.796875 3 4 L 3 22 C 3 24.203125 4.796875 26 7 26 L 19 26 C 21.203125 26 23 24.203125 23 22 L 23 8 C 23 6.9375 22.027344 5.929688 20.28125 4.21875 C 20.039063 3.980469 19.777344 3.714844 19.53125 3.46875 C 19.285156 3.222656 19.019531 2.992188 18.78125 2.75 C 17.070313 1.003906 16.0625 0 15 0 Z M 7 2 L 14.28125 2 C 15.003906 2.183594 15 3.050781 15 3.9375 L 15 7 C 15 7.550781 15.449219 8 16 8 L 19 8 C 19.996094 8 21 8.003906 21 9 L 21 22 C 21 23.105469 20.105469 24 19 24 L 7 24 C 5.894531 24 5 23.105469 5 22 L 5 4 C 5 2.894531 5.894531 2 7 2 Z M 13.5625 11 C 13.472656 10.996094 13.363281 11.019531 13.28125 11.0625 C 13.113281 11.152344 13.03125 11.3125 13.03125 11.5 L 13.03125 13.3125 C 11.914063 13.5 8.777344 13.621094 8.59375 13.75 C 8.324219 13.941406 8.125 14.488281 8.125 15 C 8.125 15.515625 8.324219 16.121094 8.59375 16.3125 C 8.777344 16.441406 11.914063 16.5 13.03125 16.6875 L 13.03125 18.46875 C 13.03125 18.65625 13.117188 18.847656 13.28125 18.9375 C 13.445313 19.027344 13.65625 19.011719 13.8125 18.90625 C 15.84375 17.539063 17.648438 15.402344 17.71875 15.3125 C 17.792969 15.21875 17.84375 15.113281 17.84375 15 C 17.84375 14.886719 17.792969 14.78125 17.71875 14.6875 C 17.648438 14.597656 15.847656 12.460938 13.8125 11.09375 C 13.734375 11.042969 13.652344 11.003906 13.5625 11 Z " stroke="none" fill="#ffffff" stroke-width="1px"></path>
</g>
</svg>