<svg xmlns="http://www.w3.org/2000/svg" xmlns:xlink="http://www.w3.org/1999/xlink" viewBox="0 0 16 16" version="1.1">
<g id="surface1" stroke="none" fill="#ffffff" stroke-width="1px">
<path style="" d="M 3.5 2 C 2.675781 2 2 2.675781 2 3.5 L 2 12.5 C 2 13.324219 2.675781 14 3.5 14 L 12.5 14 C 13.324219 14 14 13.324219 14 12.5 L 14 3.5 C 14 2.675781 13.324219 2 12.5 2 Z M 3.5 3 L 12.5 3 C 12.78125 3 13 3.21875 13 3.5 L 13 12.5 C 13 12.78125 12.78125 13 12.5 13 L 3.5 13 C 3.21875 13 3 12.78125 3 12.5 L 3 3.5 C 3 3.21875 3.21875 3 3.5 3 Z M 8 5 C 6.902344 5 6 5.902344 6 7 C 6 7.535156 6.21875 8.023438 6.5625 8.382813 C 5.636719 8.894531 5 9.871094 5 11 L 6 11 C 6 9.890625 6.890625 9 8 9 C 9.109375 9 10 9.890625 10 11 L 11 11 C 11 9.871094 10.363281 8.894531 9.4375 8.382813 C 9.78125 8.023438 10 7.535156 10 7 C 10 5.902344 9.097656 5 8 5 Z M 8 6 C 8.558594 6 9 6.441406 9 7 C 9 7.558594 8.558594 8 8 8 C 7.441406 8 7 7.558594 7 7 C 7 6.441406 7.441406 6 8 6 Z " stroke="none" fill="#000000" stroke-width="1px"></path>
</g>
</svg>
