<svg version="1.1" id="Layer_1" xmlns="http://www.w3.org/2000/svg" xmlns:xlink="http://www.w3.org/1999/xlink" x="0px" y="0px" viewBox="0 0 40 40" style="enable-background:new 0 0 40 40;" xml:space="preserve">
<g stroke="none" fill="#000000" stroke-width="1px">
	<circle style="" cx="20" cy="35" r="3.5" stroke="none" fill="#e8d47b" stroke-width="1px"></circle>
	<path style="" d="M20,32c1.654,0,3,1.346,3,3s-1.346,3-3,3s-3-1.346-3-3S18.346,32,20,32 M20,31c-2.209,0-4,1.791-4,4
		s1.791,4,4,4s4-1.791,4-4S22.209,31,20,31L20,31z" stroke="none" fill="#ba9b48" stroke-width="1px"></path>
</g>
<g stroke="none" fill="#000000" stroke-width="1px">
	<path style="" d="M5.5,34.5v-3.028c2.247-0.25,4-2.16,4-4.472V15c0-4.67,3.14-8.821,7.636-10.094L17.5,4.803V4
		c0-1.378,1.122-2.5,2.5-2.5s2.5,1.122,2.5,2.5v0.803l0.364,0.103C27.36,6.179,30.5,10.33,30.5,15v12c0,2.312,1.753,4.223,4,4.472
		V34.5H5.5z" stroke="none" fill="#ffeea3" stroke-width="1px"></path>
	<path style="" d="M20,2c1.103,0,2,0.897,2,2v0.425v0.756l0.727,0.206C27.009,6.6,30,10.553,30,15v12
		c0,2.415,1.721,4.435,4,4.9V34H6v-2.1c2.279-0.465,4-2.485,4-4.9V15c0-4.447,2.991-8.4,7.273-9.613L18,5.181V4.425V4
		C18,2.897,18.897,2,20,2 M20,1c-1.657,0-3,1.343-3,3c0,0.099,0,0.253,0,0.425C12.385,5.732,9,9.966,9,15v12c0,2.209-1.791,4-4,4v4
		h30v-4c-2.209,0-4-1.791-4-4V15c0-5.034-3.385-9.268-8-10.575C23,4.253,23,4.099,23,4C23,2.343,21.657,1,20,1L20,1z" stroke="none" fill="#ba9b48" stroke-width="1px"></path>
</g>
</svg>