<svg xmlns="http://www.w3.org/2000/svg" xmlns:xlink="http://www.w3.org/1999/xlink" version="1.1" id="Layer_1" x="0px" y="0px" viewBox="0 0 40 40" style="enable-background:new 0 0 40 40;" xml:space="preserve">
<g stroke="none" fill="#000000" stroke-width="1px">
	<path style="" d="M6.4,37.5c-0.5,0-0.9-0.4-0.9-0.9V3.4c0-0.5,0.4-0.9,0.9-0.9h10.2c0,0.2,0,0.3,0,0.5   c0,1.9,1.6,3.5,3.5,3.5s3.5-1.6,3.5-3.5c0-0.2,0-0.3,0-0.5h10.2c0.5,0,0.9,0.4,0.9,0.9v33.2c0,0.5-0.4,0.9-0.9,0.9   C33.6,37.5,6.4,37.5,6.4,37.5z" stroke="none" fill="#f5c276" stroke-width="1px"></path>
	<path style="" d="M33.6,3C33.8,3,34,3.2,34,3.4v33.2c0,0.2-0.2,0.4-0.4,0.4H6.4C6.2,37,6,36.8,6,36.6V3.4   C6,3.2,6.2,3,6.4,3H16c0,2.2,1.8,4,4,4s4-1.8,4-4H33.6 M33.6,2H22.8C22.9,2.3,23,2.6,23,3c0,1.7-1.3,3-3,3s-3-1.3-3-3   c0-0.4,0.1-0.7,0.2-1H6.4C5.6,2,5,2.6,5,3.4v33.2C5,37.4,5.6,38,6.4,38h27.3c0.8,0,1.4-0.6,1.4-1.4V3.4C35,2.6,34.4,2,33.6,2   L33.6,2z" stroke="none" fill="#c29653" stroke-width="1px"></path>
</g>
<g stroke="none" fill="#000000" stroke-width="1px">
	<rect x="9" y="6" style="" width="22" height="28" stroke="none" fill="#ffffff" stroke-width="1px"></rect>
</g>
<path style="" d="M22.3,2c0.2,0.5,0.3,1.1,0.1,1.7c-0.2,0.8-0.9,1.5-1.8,1.7C19,5.8,17.5,4.6,17.5,3  c0-0.4,0.1-0.7,0.2-1H13v4c0,1.1,0.9,2,2,2h10c1.1,0,2-0.9,2-2V2H22.3z" stroke="none" fill="#66798f" stroke-width="1px"></path>
<g stroke="none" fill="#000000" stroke-width="1px">
	<path style="" d="M20,1c1.1,0,2,0.9,2,2s-0.9,2-2,2s-2-0.9-2-2S18.9,1,20,1 M20,0c-1.7,0-3,1.3-3,3s1.3,3,3,3   s3-1.3,3-3S21.7,0,20,0L20,0z" stroke="none" fill="#66798f" stroke-width="1px"></path>
</g>
<rect x="12" y="25" style="" width="8" height="1" stroke="none" fill="#788b9c" stroke-width="1px"></rect>
<rect x="12" y="16" style="" width="8" height="1" stroke="none" fill="#788b9c" stroke-width="1px"></rect>
<polygon style="" points="24.4,19.1 22,16.7 22.7,16 24.4,17.7 28.3,14 29,14.7 " stroke="none" fill="#5e9c76" stroke-width="1px"></polygon>
<polygon style="" points="24.4,28.1 22,25.7 22.7,25 24.4,26.7 28.3,23 29,23.7 " stroke="none" fill="#5e9c76" stroke-width="1px"></polygon>
</svg>